<?xml version="1.0" encoding="UTF-8"?>
<!DOCTYPE svg PUBLIC "-//W3C//DTD SVG 1.1//EN" "http://www.w3.org/Graphics/SVG/1.1/DTD/svg11.dtd">
<!-- Creator: CorelDRAW X8 -->
<svg xmlns="http://www.w3.org/2000/svg" xml:space="preserve" width="210mm" height="210mm" version="1.1" style="shape-rendering:geometricPrecision; text-rendering:geometricPrecision; image-rendering:optimizeQuality; fill-rule:evenodd; clip-rule:evenodd"
viewBox="0 0 21000 21000"
 xmlns:xlink="http://www.w3.org/1999/xlink">
 <defs>
  <style type="text/css">
   <![CDATA[
    .fil0 {fill:#FEFEFE}
   ]]>
  </style>
 </defs>
 <g id="Camada_x0020_1">
  <metadata id="CorelCorpID_0Corel-Layer"/>
  <g id="_2059966164480">
   <path id="XMLID_469_" class="fil0" d="M10686 0c-5687,0 -10314,4592 -10314,10237 0,1826 488,3613 1414,5177l-1772 5226c-33,97 -8,205 64,278 52,53 123,82 195,82 27,0 55,-4 82,-13l5449 -1731c1492,796 3177,1217 4882,1217 5687,0 10314,-4592 10314,-10236 0,-5645 -4627,-10237 -10314,-10237zm0 18341c-1605,0 -3159,-464 -4495,-1341 -45,-29 -97,-44 -150,-44 -28,0 -55,4 -82,12l-2730 868 881 -2600c29,-84 14,-177 -38,-248 -1018,-1391 -1556,-3033 -1556,-4751 0,-4469 3665,-8105 8170,-8105 4505,0 8169,3636 8169,8105 0,4468 -3664,8104 -8169,8104z"/>
   <path id="XMLID_469__0" class="fil0" d="M15539 12067c-41,-20 -1572,-774 -1844,-872 -111,-39 -230,-78 -357,-78 -206,0 -380,103 -515,305 -153,227 -616,769 -759,930 -19,22 -44,47 -60,47 -13,0 -250,-98 -322,-129 -1642,-713 -2889,-2429 -3060,-2718 -24,-42 -25,-60 -25,-60 6,-22 61,-78 89,-106 84,-83 174,-192 261,-297 42,-50 83,-100 124,-147 127,-147 183,-262 249,-394l34 -69c160,-318 23,-586 -21,-672 -36,-73 -682,-1633 -751,-1797 -165,-395 -384,-579 -687,-579 -28,0 0,0 -118,5 -144,6 -927,109 -1273,327 -368,231 -989,969 -989,2267 0,1168 741,2271 1060,2690 7,10 22,32 43,63 1219,1779 2738,3098 4278,3714 1482,592 2185,660 2584,660 0,0 0,0 0,0 167,0 302,-13 420,-25l75 -7c512,-45 1638,-628 1894,-1340 202,-560 255,-1172 121,-1395 -92,-151 -251,-227 -451,-323z"/>
  </g>
 </g>
</svg>
